<?xml version="1.0" standalone="no"?><!DOCTYPE svg PUBLIC "-//W3C//DTD SVG 1.1//EN" "http://www.w3.org/Graphics/SVG/1.1/DTD/svg11.dtd"><svg t="1610607283792" class="icon" viewBox="0 0 1024 1024" version="1.1" xmlns="http://www.w3.org/2000/svg" p-id="593" xmlns:xlink="http://www.w3.org/1999/xlink" width="200" height="200"><defs><style type="text/css"></style></defs><path d="M250.43423 759.747075c0 34.613119 27.335406 62.796258 60.972831 62.796258h44.018162a60.844872 60.844872 0 0 0-2.303276 16.490816v125.528537c0 32.821682 25.879864 59.469304 57.773838 59.469304 31.909968 0 57.789832-26.647623 57.789832-59.469304V839.034149c0-5.7262-0.847733-11.26046-2.303276-16.490816h107.294269a60.844872 60.844872 0 0 0-2.303275 16.490816v125.528537c0 32.821682 25.879864 59.469304 57.773837 59.469304s57.789832-26.647623 57.789832-59.469304V839.034149c0-5.7262-0.847733-11.26046-2.319271-16.490816h44.018162c33.65342 0 60.972832-28.167145 60.972832-62.796258v-436.022926h-539.190492v436.022926z m-96.305724-436.022926c-31.909968 0-57.773837 26.615633-57.773837 59.45331v254.336043c0 32.837677 25.863869 59.453309 57.773837 59.453309 31.893973 0 57.773837-26.615633 57.773837-59.453309v-254.320048c0-32.853672-25.879864-59.469304-57.773837-59.469305z m731.753955 0c-31.909968 0-57.757842 26.615633-57.757843 59.45331v254.336043c0 32.837677 25.847874 59.453309 57.757843 59.453309s57.757842-26.615633 57.757842-59.453309v-254.320048c0-32.853672-25.847874-59.469304-57.757842-59.469305zM652.579805 85.750962l10.844591-16.746735 10.684641-16.506811L698.133484 15.421072a10.124817 10.124817 0 0 0-2.655165-13.739681 9.469023 9.469023 0 0 0-13.387791 2.751136l-25.719915 39.747504-10.84459 16.714745-10.972551 16.938675A309.102826 309.102826 0 0 0 519.997486 56.160265a309.182801 309.182801 0 0 0-114.523997 21.657191L394.516934 60.878781l-10.812601-16.714745L357.920439 4.416532a9.469023 9.469023 0 0 0-13.371796-2.751136 10.092827 10.092827 0 0 0-2.655166 13.739681l23.992458 37.076344 10.700636 16.506811 10.84459 16.746735c-81.71831 39.171685-137.012927 113.388354-137.012926 198.337648h539.158502c0.015995-84.933299-55.278622-159.149967-136.996932-198.321653z m-248.098004 119.066568c-15.962982 0-28.886919-13.323811-28.886919-29.734652s12.923937-29.702662 28.886919-29.702662c15.946987 0 28.886919 13.291821 28.886919 29.702662s-12.939932 29.734652-28.886919 29.734652z m231.079354 0c-15.962982 0-28.886919-13.323811-28.886918-29.734652s12.923937-29.702662 28.886918-29.702662 28.870924 13.291821 28.870924 29.702662-12.907942 29.734652-28.870924 29.734652z" fill="" p-id="594"></path></svg>