<?xml version="1.0" standalone="no"?><!DOCTYPE svg PUBLIC "-//W3C//DTD SVG 1.1//EN" "http://www.w3.org/Graphics/SVG/1.1/DTD/svg11.dtd"><svg t="1610607105641" class="icon" viewBox="0 0 1024 1024" version="1.1" xmlns="http://www.w3.org/2000/svg" p-id="6125" xmlns:xlink="http://www.w3.org/1999/xlink" width="200" height="200"><defs><style type="text/css"></style></defs><path d="M405.333333 761.6c-8.533333 0-17.066667-2.133333-23.466666-8.533333-12.8-8.533333-19.2-23.466667-17.066667-38.4l19.2-106.666667-76.8-74.666667c-10.666667-10.666667-14.933333-27.733333-10.666667-40.533333 4.266667-14.933333 17.066667-25.6 32-27.733333l106.666667-14.933334 46.933333-96c6.4-14.933333 21.333333-23.466667 36.266667-23.466666s29.866667 8.533333 36.266667 23.466666l46.933333 96 106.666667 14.933334c14.933333 2.133333 27.733333 12.8 32 27.733333 4.266667 14.933333 0 29.866667-10.666667 40.533333l-76.8 74.666667 19.2 106.666667c2.133333 14.933333-4.266667 29.866667-17.066667 38.4-12.8 8.533333-29.866667 10.666667-42.666666 2.133333L516.266667 704l-96 51.2c-2.133333 4.266667-8.533333 6.4-14.933334 6.4z m-66.133333-256l89.6 87.466667-21.333333 123.733333 110.933333-57.6 110.933333 57.6-21.333333-123.733333 89.6-87.466667-121.6-19.2-55.466667-113.066667-55.466666 113.066667-125.866667 19.2z" fill="#3D3D3D" p-id="6126"></path><path d="M236.8 940.8c-12.8 0-25.6-4.266667-34.133333-10.666667-14.933333-10.666667-21.333333-27.733333-21.333334-46.933333V170.666667c0-38.4 32-70.4 70.4-70.4h541.866667c38.4 0 70.4 32 70.4 70.4v710.4c0 19.2-8.533333 36.266667-21.333333 46.933333-14.933333 10.666667-34.133333 14.933333-51.2 8.533333L561.066667 874.666667c-21.333333-6.4-61.866667-6.4-83.2 0l-224 61.866666c-6.4 2.133333-12.8 4.266667-17.066667 4.266667z m12.8-797.866667c-14.933333 0-27.733333 12.8-27.733333 27.733334v710.4c0 6.4 2.133333 10.666667 6.4 14.933333 4.266667 2.133333 8.533333 4.266667 14.933333 2.133333l224-61.866666c29.866667-8.533333 76.8-8.533333 106.666667 0L797.866667 896c6.4 2.133333 10.666667 2.133333 14.933333-2.133333 4.266667-2.133333 6.4-8.533333 6.4-14.933334V170.666667c0-14.933333-12.8-27.733333-27.733333-27.733334H249.6z" fill="#3D3D3D" p-id="6127"></path><path d="M840.533333 270.933333h-640c-12.8 0-21.333333-8.533333-21.333333-21.333333s8.533333-21.333333 21.333333-21.333333h640c12.8 0 21.333333 8.533333 21.333334 21.333333s-10.666667 21.333333-21.333334 21.333333z" fill="#3D3D3D" p-id="6128"></path></svg>